<svg width="76" height="76" viewBox="0 0 76 76" fill="none" xmlns="http://www.w3.org/2000/svg">
<path d="M8.2588 65.2718C13.8856 62.5331 31.292 65.5537 39 60.1607C46.7081 65.5559 64.333 62.2979 69.4042 65.2718C74.4184 68.2124 73.8263 67.2736 75.2245 71.0176C73.6829 73.1748 72.8244 74.553 69.7412 73.4744C62.0331 71.3172 46.7081 74.4909 39 71.2551C31.292 74.4931 15.9669 71.3172 8.2588 73.4744C5.17558 74.553 4.31713 73.0084 2.77551 70.849C5.85646 66.5324 2.90528 67.8751 8.2588 65.2718Z" fill="white" stroke="white" stroke-width="1.01243" stroke-linejoin="round"/>
<path d="M21.9215 59.0466C27.6143 64.5949 50.3856 64.5949 56.0784 59.0466C57.217 55.7176 56.0784 54.6079 56.0784 54.6079C56.0784 49.0596 51.3806 45.7306 51.3806 45.7306C63.9048 42.4016 64.0483 20.2083 38.9977 11.3309C13.9493 20.2083 14.5823 42.7389 27.1065 46.0679C27.1065 46.0679 21.7507 48.2184 21.7507 53.7667C21.753 53.7667 20.783 55.7176 21.9215 59.0466Z" fill="white" stroke="white" stroke-width="1.01243" stroke-linejoin="round"/>
<path d="M45.8882 8.63439C45.8882 12.2652 42.6957 15.2081 38.7563 15.2081C34.8169 15.2081 31.6244 12.2652 31.6244 8.63439C31.6244 5.00357 34.8169 2.06079 38.7563 2.06079C42.6934 2.06079 45.8882 5.00357 45.8882 8.63439Z" fill="white" stroke="white" stroke-width="0.83102" stroke-linejoin="round"/>
<path d="M27.6144 45.7305H50.3856H27.6144Z" fill="#FF8BFF"/>
<path d="M27.6144 45.7305H50.3856" stroke="#FF78FF" stroke-width="1.01243" stroke-linecap="round"/>
<path d="M39 22.4276V33.5243V22.4276Z" fill="#FF8BFF"/>
<path d="M39 22.4276V33.5243" stroke="#FF78FF" stroke-width="1.01243" stroke-linecap="round"/>
<path d="M33.3072 27.976H44.6928H33.3072Z" fill="#FF8BFF"/>
<path d="M33.3072 27.976H44.6928" stroke="#FF78FF" stroke-width="1.01243" stroke-linecap="round"/>
<path d="M11.2402 66.0827C18.1619 64.0949 31.9216 66.9641 38.8453 61.9926C45.767 66.9641 59.5287 64.0949 66.4504 66.0827C66.4504 66.0827 69.8162 67.1911 72.5848 70.1728C71.2005 72.1606 69.2191 72.1892 66.4504 71.1953C59.5287 69.2055 45.767 72.1319 38.8453 69.1503C31.9236 72.1319 18.1619 69.2055 11.2402 71.1953C8.47155 72.1892 6.49012 72.1606 5.10577 70.1728C7.87446 66.1972 11.2402 66.0827 11.2402 66.0827Z" fill="#000" stroke="#000" stroke-width="1.01247" stroke-linejoin="round"/>
<path d="M23.5071 57.9025C28.6192 63.0151 49.0674 63.0151 54.1794 57.9025C55.2018 54.8349 54.1794 53.8124 54.1794 53.8124C54.1794 48.6998 49.0674 45.6323 49.0674 45.6323C60.3139 42.5647 61.3363 22.1143 38.8433 13.9341C16.3503 22.1143 17.3727 42.5647 28.6192 45.6323C28.6192 45.6323 23.5071 48.6998 23.5071 53.8124C23.5071 53.8124 22.4868 54.8349 23.5071 57.9025Z" fill="#000" stroke="#000" stroke-width="1.01247" stroke-linejoin="round"/>
<path d="M43.9574 8.82153C43.9574 11.6457 41.6692 13.9341 38.8453 13.9341C36.0214 13.9341 33.7332 11.6457 33.7332 8.82153C33.7332 5.99733 36.0214 3.70892 38.8453 3.70892C41.6672 3.70892 43.9574 5.99937 43.9574 8.82153Z" fill="#000" stroke="#000" stroke-width="1.01247" stroke-linejoin="round"/>
<path d="M28.6212 45.6323H49.0693" stroke="white" stroke-width="1.01247" stroke-linecap="round"/>
<path d="M23.5071 53.8124H54.1794" stroke="white" stroke-width="1.01247" stroke-linecap="round"/>
<path d="M38.8453 24.1593V34.3845" stroke="white" stroke-width="1.01247" stroke-linecap="round"/>
<path d="M33.7332 29.2719H43.9574" stroke="white" stroke-width="1.01247" stroke-linecap="round"/>
</svg>
