<svg width="79" height="79" viewBox="0 0 79 79" fill="none" xmlns="http://www.w3.org/2000/svg">
<path d="M9.07869 70.6004C16.7719 68.4121 32.0651 71.5707 39.7605 66.0978C47.4537 71.5707 62.7492 68.4121 70.4424 70.6004C70.4424 70.6004 74.1833 71.8206 77.2606 75.103C75.7219 77.2913 73.5197 77.3228 70.4424 76.2286C62.7492 74.0404 47.456 77.2597 39.7605 73.9773C32.0673 77.2597 16.7719 74.0404 9.07869 76.2286C6.00141 77.3228 3.79914 77.2913 2.2605 75.103C5.33777 70.7265 9.07869 70.6004 9.07869 70.6004Z" fill="white" stroke="#000000" stroke-width="3.3749" stroke-linejoin="round"/>
<path d="M22.715 61.5952C28.3969 67.2235 51.1241 67.2235 56.806 61.5952C57.9423 58.2183 56.806 57.0926 56.806 57.0926C56.806 51.4643 51.1241 48.0875 51.1241 48.0875C63.6241 44.7106 64.7605 22.1975 39.7605 13.1923C14.7605 22.1975 15.8969 44.7106 28.3969 48.0875C28.3969 48.0875 22.715 51.4643 22.715 57.0926C22.715 57.0926 21.5787 58.2183 22.715 61.5952Z" fill="white" stroke="#000000" stroke-width="3.3749" stroke-linejoin="round"/>
<path d="M45.4423 7.56396C45.4423 10.673 42.8992 13.1922 39.7605 13.1922C36.6219 13.1922 34.0787 10.673 34.0787 7.56396C34.0787 4.45491 36.6219 1.9357 39.7605 1.9357C42.8992 1.9357 45.4423 4.45716 45.4423 7.56396Z" fill="white" stroke="#000000" stroke-width="3.3749" stroke-linejoin="round"/>
<path d="M28.3969 48.0875H51.1242" stroke="#000000" stroke-width="3.3749"/>
<path d="M22.7151 57.0925H56.8059" stroke="#000000" stroke-width="3.3749"/>
<path d="M39.7605 24.4487V35.7052" stroke="#000000" stroke-width="3.3749" stroke-linecap="round"/>
<path d="M34.0787 30.077H45.4423" stroke="#000000" stroke-width="3.3749" stroke-linecap="round"/>
</svg>
