<svg width="77" height="76" viewBox="0 0 77 76" fill="none" xmlns="http://www.w3.org/2000/svg">
<path d="M39.2426 16.1975V2.40619V16.1975Z" fill="white"/>
<path d="M39.2426 16.1975V2.40619" stroke="white" stroke-width="4.04996" stroke-linecap="round"/>
<path d="M39.2426 44.4862C39.2426 44.4862 50.9492 25.9288 47.2718 18.5734C47.2718 18.5734 44.1459 12.6131 39.2426 12.6131C34.3393 12.6131 31.2136 18.9118 31.2136 18.9118C27.5361 26.2647 39.2426 44.4862 39.2426 44.4862Z" fill="white" stroke="white" stroke-width="1.01255"/>
<path d="M13.1155 68.7415C26.5996 77.3227 50.275 77.1535 63.759 68.5723L63.5899 53.0943C63.5899 53.0943 81.6143 44.2483 74.2594 29.5401C64.4528 13.6035 41.1623 20.9589 35.0332 39.3472L39.2426 44.0571V35.4759C30.326 20.4538 12.9267 14.7829 3.8875 28.53C-3.46741 43.2406 12.7796 53.0477 12.7796 53.0477L13.1155 68.7415Z" fill="white" stroke="white" stroke-width="1.01255" stroke-linecap="round" stroke-linejoin="round"/>
<path d="M33.1136 7.30988H45.3717H33.1136Z" fill="white"/>
<path d="M33.1136 7.30988H45.3717" stroke="white" stroke-width="4.04996" stroke-linecap="round"/>
<path d="M39.2977 14.9509V3.44757" stroke="#000000" stroke-width="1.01247" stroke-linecap="round"/>
<path d="M39.2976 42.3033C39.2976 42.3033 48.4993 26.9655 45.432 20.8304C45.432 20.8304 43.3872 15.7178 39.2976 15.7178C35.2079 15.7178 33.1631 20.8304 33.1631 20.8304C30.0959 26.9655 39.2976 42.3033 39.2976 42.3033Z" fill="#000000" stroke="#000000" stroke-width="1.01247"/>
<path d="M16.8046 66.8438C28.0511 74.0014 48.4993 74.0014 59.7458 66.8438V52.5286C59.7458 52.5286 78.1492 43.3259 72.0147 31.0557C63.8354 17.7629 44.4096 23.898 39.2976 39.2358V46.3934V39.2358C32.1407 23.898 12.715 17.7629 6.5805 31.0557C0.446044 43.3259 16.8046 51.506 16.8046 51.506V66.8438Z" fill="#000000" stroke="#000000" stroke-width="1.01247" stroke-linecap="round" stroke-linejoin="round"/>
<path d="M34.1856 7.53778H44.4097" stroke="#000000" stroke-width="1.01247" stroke-linecap="round"/>
<path d="M16.8047 51.5061C28.0512 46.3935 48.4993 46.3935 59.7458 52.5286" stroke="white" stroke-width="1.01247" stroke-linecap="round"/>
<path d="M16.8047 66.8437C28.0512 61.7311 48.4993 61.7311 59.7458 66.8437" stroke="white" stroke-width="1.01247" stroke-linecap="round" stroke-linejoin="round"/>
<path d="M16.8047 59.6862C28.0512 55.5961 48.4993 55.5961 59.7458 59.6862" stroke="white" stroke-width="1.01247" stroke-linecap="round" stroke-linejoin="round"/>
<path d="M58.7234 51.506C58.7234 51.506 76.1044 43.3258 71.0455 31.7652C63.1136 19.8018 44.4097 27.9881 39.2976 41.2808L39.3221 45.5692L39.2976 41.2808C34.1856 27.9881 13.5472 19.8018 7.5968 31.7652C2.49088 43.3258 17.51 50.1705 17.51 50.1705" stroke="white" stroke-width="1.01247" stroke-linecap="round" stroke-linejoin="round"/>
</svg>
