<svg width="79" height="80" viewBox="0 0 79 80" fill="none" xmlns="http://www.w3.org/2000/svg">
<path d="M39.4564 14.9116V3" stroke="white" stroke-width="5.4" stroke-linecap="round"/>
<path d="M33.7301 7.36414H44.997" stroke="white" stroke-width="5.4" stroke-linecap="round"/>
<path d="M39.5688 15.557V3.01294" stroke="#000000" stroke-width="3.375" stroke-linecap="round"/>
<path d="M39.5688 45.3853C39.5688 45.3853 49.7088 28.6596 46.3281 21.9692C46.3281 21.9692 44.0757 16.3947 39.5688 16.3947C35.0619 16.3947 32.8088 21.9692 32.8088 21.9692C29.4288 28.6596 39.5688 45.3853 39.5688 45.3853Z" fill="white" stroke="#000000" stroke-width="3.375"/>
<path d="M14.7834 72.1464C27.1757 79.9513 49.7088 79.9513 62.1011 72.1464V56.5358C62.1011 56.5358 82.3804 46.5006 75.6204 33.1204C66.6073 18.6251 45.2019 25.3155 39.5688 42.0413V49.8461V42.0413C31.6827 25.3155 10.2765 18.6258 3.51652 33.1204C-3.24273 46.5013 14.7834 55.4214 14.7834 55.4214V72.1464V72.1464Z" fill="white" stroke="#000000" stroke-width="3.375" stroke-linecap="round" stroke-linejoin="round"/>
<path d="M33.9358 7.47391H45.2019" stroke="#000000" stroke-width="3.375" stroke-linecap="round"/>
<path d="M14.7834 55.4206C27.1757 49.8454 49.7088 49.8454 62.1011 56.5358" stroke="#000000" stroke-width="3.375" stroke-linecap="round"/>
<path d="M14.7834 72.1464C27.1757 66.5711 49.7088 66.5711 62.1011 72.1464" stroke="#000000" stroke-width="3.375" stroke-linecap="round" stroke-linejoin="round"/>
<path d="M14.7834 64.3407C27.1757 59.8806 49.7088 59.8806 62.1011 64.3407" stroke="#000000" stroke-width="3.375" stroke-linecap="round" stroke-linejoin="round"/>
</svg>
