<svg width="76" height="76" viewBox="0 0 76 76" fill="none" xmlns="http://www.w3.org/2000/svg">
<path d="M37.2384 9.66199C62.2591 12.436 73.6664 27.0947 72.5764 72.856H21.9864C21.3904 48.244 42.4658 58.5726 38.1078 26.9759" fill="white"/>
<path d="M43.9977 27.5853C44.9111 34.0593 32.9404 43.9707 27.1231 47.5987C19.9924 52.046 20.4218 57.256 15.2378 56.494C12.4924 52.9386 15.5278 52.558 12.8611 54.27C10.4844 54.27 3.34575 56.494 3.35242 45.3753C3.35242 40.9273 15.9491 18.6913 15.9491 18.6913C15.9491 18.6913 19.4791 14.4614 19.7504 10.908C18.0244 8.69735 19.0384 6.46063 19.0384 4.23663C21.4151 2.0133 27.4791 9.79596 27.4791 9.79596H30.3284C30.3284 9.79596 32.7824 5.36664 36.8664 3.12531C39.2431 3.12531 39.2431 9.79596 39.2431 9.79596" fill="white"/>
<path d="M10.0031 43.438C10.0031 44.0393 9.51506 44.528 8.91306 44.528C8.31106 44.528 7.82373 44.04 7.82373 43.438C7.82373 42.836 8.31106 42.3487 8.91306 42.3487C9.51506 42.3487 10.0031 42.8366 10.0031 43.438Z" fill="#F2F2F2"/>
<path d="M21.8411 22.192C20.9384 23.7554 19.7844 24.7788 19.2631 24.4781C18.7424 24.1774 19.0517 22.6661 19.9537 21.1027C20.8564 19.5394 22.0104 18.516 22.5311 18.8166C23.0524 19.1173 22.7431 20.628 21.8411 22.192Z" fill="#F2F2F2"/>
<path d="M42.7944 10.534L42.1411 12.9313L43.3397 13.1487C50.0977 14.1887 57.1177 18.0174 62.0231 27.3C66.9284 36.582 68.3904 51.1894 67.3071 72.8567L67.1984 72.8747H71.0117V72.8567C72.1071 50.942 69.1018 36.1314 63.9304 26.346C58.7584 16.5607 51.3164 11.8907 43.9117 10.7514L42.7944 10.534Z" fill="white"/>
<path d="M37.9751 11.5927C59.4458 13.6373 71.7144 27.9533 70.6924 70.8994H23.6611C23.6611 52.494 44.1098 57.6067 40.0198 27.9533" fill="#000000"/>
<path d="M37.9751 11.5927C59.4458 13.6373 71.7144 27.9533 70.6924 70.8994H23.6611C23.6611 52.494 44.1098 57.6067 40.0198 27.9533" stroke="#000000" stroke-width="0.675" stroke-linecap="round"/>
<path d="M42.0651 27.9533C42.8517 33.9073 30.7104 43.0226 25.7064 46.3579C19.5725 50.4486 19.9425 55.2393 15.4825 54.5386C13.3525 52.6079 18.3725 48.3266 15.4825 48.4033C13.4378 48.4033 15.8658 50.9226 13.4378 52.4939C11.3931 52.4939 5.25249 54.5386 5.25849 44.3133C5.25849 40.2233 17.5271 19.7726 17.5271 19.7726C17.5271 19.7726 21.3831 15.8826 21.6171 12.6153C20.1318 10.5813 20.5945 8.52525 20.5945 6.47992C22.6391 4.43525 26.7291 11.5926 26.7291 11.5926H30.8184C30.8184 11.5926 32.4171 7.51928 35.9311 5.45795C37.9751 5.45795 37.9751 11.5926 37.9751 11.5926" fill="#000000"/>
<path d="M42.0651 27.9533C42.8517 33.9073 30.7104 43.0226 25.7064 46.3579C19.5725 50.4486 19.9425 55.2393 15.4825 54.5386C13.3525 52.6079 18.3725 48.3266 15.4825 48.4033C13.4378 48.4033 15.8658 50.9226 13.4378 52.4939C11.3931 52.4939 5.25249 54.5386 5.25849 44.3133C5.25849 40.2233 17.5271 19.7726 17.5271 19.7726C17.5271 19.7726 21.3831 15.8826 21.6171 12.6153C20.1318 10.5813 20.5945 8.52525 20.5945 6.47992C22.6391 4.43525 26.7291 11.5926 26.7291 11.5926H30.8184C30.8184 11.5926 32.4171 7.51928 35.9311 5.45795C37.9751 5.45795 37.9751 11.5926 37.9751 11.5926" stroke="#000000" stroke-width="0.675" stroke-linecap="round" stroke-linejoin="round"/>
<path d="M12.4151 43.2914C12.4151 43.8561 11.9571 44.3134 11.3924 44.3134C10.8277 44.3134 10.3704 43.8554 10.3704 43.2914C10.3704 42.726 10.8284 42.2687 11.3924 42.2687C11.9571 42.2687 12.4151 42.7267 12.4151 43.2914Z" fill="white" stroke="white" stroke-width="0.22005" stroke-linecap="round" stroke-linejoin="round"/>
<path d="M23.5244 23.352C22.6771 24.8194 21.5944 25.78 21.1051 25.4973C20.6164 25.2153 20.9064 23.7967 21.7538 22.33C22.6011 20.8627 23.6844 19.902 24.1731 20.184C24.6618 20.4667 24.3718 21.8854 23.5244 23.352Z" fill="white" stroke="white" stroke-width="0.22005" stroke-linecap="round" stroke-linejoin="round"/>
<path d="M42.5704 12.4114L41.9564 14.6606L43.0818 14.8653C49.4238 15.8413 56.0124 19.4347 60.6164 28.1453C65.2198 36.856 67.2111 49.9227 66.1938 70.2567L66.0918 71.2794H69.6698V70.2567C70.6984 49.69 67.2591 36.434 62.4058 27.2506C57.5524 18.0673 50.5684 13.6847 43.6184 12.616L42.5704 12.4114Z" fill="white"/>
</svg>
