<svg width="76" height="76" viewBox="0 0 76 76" fill="none" xmlns="http://www.w3.org/2000/svg">
<path d="M37.0275 7.1535C64.108 10.1371 76.4545 25.8988 75.2755 75.1067H20.5198C19.8755 48.6414 42.6852 59.7478 37.9691 25.7712" fill="#000000"/>
<path d="M44.3433 26.4271C45.3325 33.3879 32.3756 44.0463 26.0801 47.9475C18.3617 52.7297 18.8263 58.3312 13.2163 57.5119C10.2442 53.6888 13.5295 53.2795 10.6432 55.1211C8.07091 55.1211 0.344547 57.5119 0.352484 45.5567C0.352484 40.7745 13.9855 16.8634 13.9855 16.8634C13.9855 16.8634 17.8068 12.3149 18.0997 8.4947C16.2324 6.11686 17.3291 3.7125 17.3291 1.32175C19.9015 -1.06972 26.4647 7.29969 26.4647 7.29969H29.5486C29.5486 7.29969 32.2046 2.53614 36.6249 0.126038C39.1979 0.126038 39.1979 7.29969 39.1979 7.29969" fill="#000000"/>
<path d="M7.54918 43.4735C7.54918 44.1201 7.02173 44.6448 6.36945 44.6448C5.71862 44.6448 5.19044 44.1201 5.19044 43.4735C5.19044 42.8261 5.7179 42.3022 6.36945 42.3022C7.02173 42.3022 7.54918 42.8261 7.54918 43.4735Z" fill="#F2F2F2"/>
<path d="M20.3618 20.627C19.3848 22.308 18.1358 23.4084 17.5723 23.0851C17.008 22.7611 17.3428 21.1367 18.3191 19.4557C19.296 17.7746 20.545 16.6742 21.1093 16.9975C21.6735 17.3208 21.3387 18.9459 20.3618 20.627V20.627Z" fill="#F2F2F2"/>
<path d="M43.0409 8.09113L42.3338 10.6689L43.6311 10.9034C50.9455 12.0217 58.5434 16.1386 63.8526 26.1196C69.1625 36.1005 70.7442 51.8085 69.5717 75.1067L69.454 75.126H73.5813V75.1067C74.7675 51.5411 71.5141 35.616 65.917 25.0938C60.3192 14.5716 52.2652 9.55069 44.2509 8.32556L43.0409 8.09113V8.09113Z" fill="#000000"/>
<path d="M37.8248 9.23022C61.0624 11.4296 74.3418 26.8228 73.2349 73.002H22.3324C22.3324 53.2107 44.4638 58.7084 40.0371 26.8222" fill="white"/>
<path d="M37.8248 9.23022C61.0624 11.4296 74.3418 26.8228 73.2349 73.002H22.3324C22.3324 53.2107 44.4638 58.7084 40.0371 26.8222" stroke="#000000" stroke-width="0.675" stroke-linecap="round"/>
<path d="M42.2508 26.8228C43.1022 33.2252 29.9613 43.0269 24.5454 46.6141C17.9064 51.0121 18.3068 56.1642 13.4797 55.4108C11.1743 53.3347 16.6083 48.731 13.4797 48.8135C11.2667 48.8135 13.8945 51.5217 11.2666 53.2114C9.05437 53.2114 2.40745 55.4108 2.41395 44.4155C2.41395 40.0175 15.6926 18.0269 15.6926 18.0269C15.6926 18.0269 19.8661 13.8439 20.1194 10.3298C18.5118 8.14338 19.0125 5.93185 19.0125 3.7325C21.2255 1.53387 25.6522 9.2302 25.6522 9.2302H30.079C30.079 9.2302 31.8085 4.85014 35.6118 2.63287C37.8248 2.63287 37.8248 9.2302 37.8248 9.2302" fill="white"/>
<path d="M42.2508 26.8228C43.1022 33.2252 29.9613 43.0269 24.5454 46.6141C17.9064 51.0121 18.3068 56.1642 13.4797 55.4108C11.1743 53.3347 16.6083 48.731 13.4797 48.8135C11.2667 48.8135 13.8945 51.5217 11.2666 53.2114C9.05437 53.2114 2.40745 55.4108 2.41395 44.4155C2.41395 40.0175 15.6926 18.0269 15.6926 18.0269C15.6926 18.0269 19.8661 13.8439 20.1194 10.3298C18.5118 8.14338 19.0125 5.93185 19.0125 3.7325C21.2255 1.53387 25.6522 9.2302 25.6522 9.2302H30.079C30.079 9.2302 31.8085 4.85014 35.6118 2.63287C37.8248 2.63287 37.8248 9.2302 37.8248 9.2302" stroke="#000000" stroke-width="0.675" stroke-linecap="round" stroke-linejoin="round"/>
<path d="M10.1605 43.3158C10.1605 43.923 9.66478 44.4155 9.05436 44.4155C8.4425 44.4155 7.94753 43.923 7.94753 43.3158C7.94753 42.7086 8.44322 42.2162 9.05436 42.2162C9.66478 42.2162 10.1605 42.7079 10.1605 43.3158Z" fill="#000000" stroke="#000000" stroke-width="0.22005" stroke-linecap="round" stroke-linejoin="round"/>
<path d="M22.1844 21.875C21.2673 23.4529 20.0955 24.4858 19.5667 24.1818C19.037 23.8786 19.3509 22.3531 20.268 20.776C21.1851 19.1989 22.3576 18.1652 22.8865 18.4691C23.4154 18.7724 23.1008 20.2972 22.1844 21.875Z" fill="#000000" stroke="#000000" stroke-width="0.22005" stroke-linecap="round" stroke-linejoin="round"/>
<path d="M42.7985 10.1098L42.1346 12.5292L43.3519 12.7493C50.216 13.7988 57.3471 17.6627 62.3302 27.0293C67.3125 36.3959 69.4677 50.4465 68.3666 72.3116L68.2563 73.4113H72.1295V72.3116C73.2422 50.1963 69.5197 35.9421 64.2668 26.0672C59.0139 16.1931 51.4549 11.4805 43.9335 10.3306L42.7985 10.1098Z" fill="#000000"/>
</svg>
