<svg width="74" height="76" viewBox="0 0 74 76" fill="none" xmlns="http://www.w3.org/2000/svg">
<path d="M38 7.81299C33.4853 7.81299 29.8206 11.4777 29.8206 15.993C29.8206 17.803 30.4213 19.495 31.4179 20.8503C27.4266 23.145 24.7086 27.4217 24.7086 32.3537C24.7086 36.5137 26.6353 40.205 29.6286 42.643C23.4966 44.8063 14.4847 53.9863 14.4847 70.187H61.5153C61.5153 53.9863 52.5033 44.8063 46.3707 42.643C49.3647 40.205 51.2913 36.5137 51.2913 32.3537C51.2913 27.4223 48.5733 23.145 44.582 20.8503C45.578 19.495 46.1793 17.8037 46.1793 15.993C46.1793 11.4777 42.5146 7.81299 38 7.81299Z" fill="white" stroke="#000000" stroke-width="3.375" stroke-linecap="round"/>
</svg>
