<svg width="74" height="76" viewBox="0 0 74 76" fill="none" xmlns="http://www.w3.org/2000/svg">
<path d="M38 7.81293C33.4853 7.81293 29.8206 11.4776 29.8206 15.9929C29.8206 17.8036 30.4213 19.4949 31.4179 20.8503C27.4266 23.1443 24.7086 27.4216 24.7086 32.3536C24.7086 36.513 26.6353 40.2043 29.6293 42.6429C23.4966 44.8063 14.4847 53.9863 14.4847 70.187H61.5153C61.5153 53.9856 52.5033 44.8063 46.3707 42.6429C49.3647 40.2049 51.2913 36.5136 51.2913 32.3536C51.2913 27.4223 48.5733 23.1449 44.582 20.8503C45.578 19.4949 46.1793 17.8036 46.1793 15.9929C46.1793 11.4776 42.5153 7.81293 38 7.81293V7.81293Z" fill="#000000" stroke="white" stroke-width="3.375" stroke-linecap="round"/>
</svg>
