<svg width="76" height="77" viewBox="0 0 76 77" fill="none" xmlns="http://www.w3.org/2000/svg">
<path d="M9.25722 45.8115C27.1961 42.4073 53.4226 43.8212 66.0855 47.2254C66.0855 47.2254 72.3835 17.8837 69.997 14.04C67.6099 10.1963 56.5388 31.8513 56.5388 31.8513L54.4501 3.90302L44.5444 30.1336C44.5444 30.1336 41.0109 6.84149 37.671 6.98709C34.3318 7.1327 31.1849 30.7161 31.1849 30.7161C31.1849 30.7161 25.9027 8.45369 21.5892 8.67506C17.1979 8.89643 18.881 32.267 18.881 32.267C18.881 32.267 8.60284 11.8184 6.19673 15.2042C3.79062 18.59 9.25722 45.8115 9.25722 45.8115V45.8115Z" fill="white" stroke="white" stroke-width="0.675" stroke-linejoin="round"/>
<path d="M8.56055 42.398C8.56055 47.2043 9.34299 49.7296 13.0517 53.7868C14.1295 55.5611 15.7366 55.911 14.4242 59.4233C10.9507 61.8261 10.8735 66.7621 10.8735 66.7621C9.79824 70.1999 12.1088 74.0819 12.1088 74.0819C27.1594 76.4847 46.714 76.4932 62.4601 74.3316C62.4601 74.3316 64.5408 71.3654 63.7749 67.7602C63.7749 67.7602 63.9269 62.2425 61.2279 59.756C60.6115 55.3285 61.8921 55.532 63.5115 53.0917C65.9819 49.0345 66.7821 48.2854 66.7821 43.4791C47.0994 39.8746 28.2426 38.7928 8.56055 42.398V42.398Z" fill="white" stroke="white" stroke-width="0.675" stroke-linejoin="round"/>
<path d="M75.1977 17.095C75.1977 20.9341 72.3032 24.0465 68.733 24.0465C65.1627 24.0465 62.2683 20.9341 62.2683 17.095C62.2683 13.2553 65.1627 10.1429 68.733 10.1429C72.3032 10.1429 75.1977 13.2559 75.1977 17.095Z" fill="white" stroke="white" stroke-width="0.12798" stroke-linecap="round" stroke-linejoin="round"/>
<path d="M13.1265 17.0232C13.1265 20.8629 10.232 23.9753 6.66175 23.9753C3.09212 23.9753 0.197693 20.8629 0.197693 17.0232C0.197693 13.1834 3.09212 10.071 6.66175 10.071C10.232 10.071 13.1265 13.1834 13.1265 17.0232Z" fill="white" stroke="white" stroke-width="0.12798" stroke-linecap="round" stroke-linejoin="round"/>
<path d="M10.5169 17.1359C10.5169 19.368 8.83384 21.1779 6.75797 21.1779C4.6821 21.1779 2.99898 19.368 2.99898 17.1359C2.99898 14.903 4.6821 13.0938 6.75797 13.0938C8.83384 13.0938 10.5169 14.903 10.5169 17.1359Z" fill="white" stroke="#000000" stroke-width="1.10025" stroke-linecap="round" stroke-linejoin="round"/>
<path d="M44.1504 7.87191C44.1504 11.7117 41.256 14.824 37.6857 14.824C34.1161 14.824 31.2216 11.7117 31.2216 7.87191C31.2216 4.03216 34.1161 0.919769 37.6857 0.919769C41.256 0.919769 44.1504 4.03282 44.1504 7.87191Z" fill="white" stroke="white" stroke-width="0.12798" stroke-linecap="round" stroke-linejoin="round"/>
<path d="M41.5256 8.0412C41.5256 10.2734 39.8431 12.0832 37.7672 12.0832C35.6908 12.0832 34.0082 10.2734 34.0082 8.0412C34.0082 5.80903 35.6908 3.99918 37.7672 3.99918C39.8431 3.99852 41.5256 5.80837 41.5256 8.0412Z" fill="white" stroke="#000000" stroke-width="1.10025" stroke-linecap="round" stroke-linejoin="round"/>
<path d="M72.5342 17.1359C72.5342 19.368 70.8518 21.1779 68.7759 21.1779C66.6994 21.1779 65.0169 19.368 65.0169 17.1359C65.0169 14.903 66.6994 13.0938 68.7759 13.0938C70.8518 13.0932 72.5342 14.903 72.5342 17.1359Z" fill="white" stroke="#000000" stroke-width="1.10025" stroke-linecap="round" stroke-linejoin="round"/>
<path d="M28.2126 10.0349C28.2126 13.874 25.3182 16.9864 21.7486 16.9864C18.1783 16.9864 15.2838 13.874 15.2838 10.0349C15.2838 6.19512 18.1783 3.08273 21.7486 3.08273C25.3188 3.08339 28.2126 6.19578 28.2126 10.0349Z" fill="white" stroke="white" stroke-width="0.12798" stroke-linecap="round" stroke-linejoin="round"/>
<path d="M25.551 10.0619C25.551 12.2947 23.8685 14.1039 21.7926 14.1039C19.7162 14.1039 18.0336 12.2941 18.0336 10.0619C18.0336 7.82972 19.7162 6.01987 21.7926 6.01987C23.8685 6.01987 25.551 7.82972 25.551 10.0619Z" fill="white" stroke="#000000" stroke-width="1.10025" stroke-linecap="round" stroke-linejoin="round"/>
<path d="M60.2427 11.0337C60.2427 14.8727 57.3482 17.9851 53.7786 17.9851C50.2083 17.9851 47.3139 14.8727 47.3139 11.0337C47.3139 7.1939 50.2083 4.08151 53.7786 4.08151C57.3482 4.08151 60.2427 7.1939 60.2427 11.0337Z" fill="white" stroke="white" stroke-width="0.12798" stroke-linecap="round" stroke-linejoin="round"/>
<path d="M57.5002 11.0725C57.5002 13.3053 55.817 15.1145 53.7412 15.1145C51.6653 15.1145 49.9822 13.3047 49.9822 11.0725C49.9822 8.84034 51.6653 7.03049 53.7412 7.03049C55.817 7.03049 57.5002 8.83968 57.5002 11.0725Z" fill="white" stroke="#000000" stroke-width="1.10025" stroke-linecap="round" stroke-linejoin="round"/>
<path d="M12.3961 45.4307C28.3707 42.3987 51.862 42.3987 63.1377 45.4307L66.8967 21.1779L53.7412 43.4094V15.1146L43.4048 42.3987L37.7672 12.0833L32.1291 42.3987L21.7933 14.1039V43.4087L8.63776 21.1773L12.3961 45.4307V45.4307Z" fill="white" stroke="#000000" stroke-width="3.375" stroke-linejoin="round"/>
<path d="M12.3961 45.4307C12.3961 49.4727 15.2158 49.4727 17.0944 53.5147C18.9736 56.5467 18.9736 55.5354 18.0343 60.588C15.2152 62.6087 15.2152 65.6407 15.2152 65.6407C12.3955 68.6727 16.1545 70.6934 16.1545 70.6934C28.3707 72.7141 47.1631 72.7141 59.3787 70.6934C59.3787 70.6934 62.1984 68.6727 59.3787 65.6407C59.3787 65.6407 60.3186 62.6087 57.5002 60.588C56.5603 55.5354 56.5603 56.5461 58.4395 53.5147C60.3186 49.4727 63.1377 49.4727 63.1377 45.4307C47.1637 42.3986 28.3707 42.3986 12.3961 45.4307V45.4307Z" fill="white" stroke="#000000" stroke-width="3.375" stroke-linejoin="round"/>
<path d="M17.0944 53.5147C23.6719 51.494 51.862 51.494 58.4395 53.5147" stroke="#000000" stroke-width="3.375" stroke-linecap="round" stroke-linejoin="round"/>
<path d="M18.0343 60.588C29.31 58.5674 46.2245 58.5674 57.5002 60.588" stroke="#000000" stroke-width="3.375" stroke-linecap="round" stroke-linejoin="round"/>
<path d="M15.2152 65.6407C24.6117 63.62 49.9822 63.62 59.3787 65.6407" stroke="#000000" stroke-width="3.375" stroke-linecap="round" stroke-linejoin="round"/>
</svg>
