<svg width="77" height="77" viewBox="0 0 77 77" fill="none" xmlns="http://www.w3.org/2000/svg">
<path d="M12.0562 16.3644C12.0562 19.6578 9.58013 22.3268 6.52813 22.3268C3.47425 22.3268 1 19.6571 1 16.3644C1 13.0717 3.47488 10.4027 6.52813 10.4027C9.58013 10.402 12.0562 13.0717 12.0562 16.3644Z" fill="white" stroke="white" stroke-width="0.153697" stroke-linecap="round" stroke-linejoin="round"/>
<path d="M27.6793 8.88769C27.6793 12.1811 25.2045 14.8501 22.1525 14.8501C19.0986 14.8501 16.6244 12.1804 16.6244 8.88769C16.6244 5.59494 19.0992 2.92596 22.1525 2.92596C25.2045 2.92596 27.6793 5.59494 27.6793 8.88769Z" fill="white" stroke="white" stroke-width="0.153697" stroke-linecap="round" stroke-linejoin="round"/>
<path d="M44.0514 7.00274C44.0514 10.2955 41.5765 12.9645 38.5245 12.9645C35.4707 12.9645 32.9965 10.2948 32.9965 7.00274C32.9965 3.7093 35.4713 1.04034 38.5245 1.04034C41.5765 1.03967 44.0514 3.7093 44.0514 7.00274Z" fill="white" stroke="white" stroke-width="0.153697" stroke-linecap="round" stroke-linejoin="round"/>
<path d="M60.5821 10.4305C60.5821 13.7233 58.1073 16.3923 55.0553 16.3923C52.0014 16.3923 49.5273 13.7226 49.5273 10.4305C49.5273 7.13709 52.0021 4.46814 55.0553 4.46814C58.1073 4.46814 60.5821 7.13777 60.5821 10.4305Z" fill="white" stroke="white" stroke-width="0.153697" stroke-linecap="round" stroke-linejoin="round"/>
<path d="M9.77336 43.7008C28.2005 40.1936 54.188 40.1936 67.1966 43.7008L70.737 13.2414L56.8333 35.5345L56.1964 6.74075L44.75 36.2513L38.4044 2.71967L32.2186 35.7374L20.771 6.0864L20.6123 37.4208L6.70746 14.6132L9.77336 43.7008V43.7008Z" fill="white" stroke="white" stroke-width="0.675" stroke-linejoin="round"/>
<path d="M9.77334 43.7009C9.77334 48.3777 12.3891 48.8915 14.558 53.5683C16.7251 57.0755 17.3621 55.3928 16.2776 61.2384C13.0248 63.5761 13.0249 67.0834 13.0249 67.0834C9.77335 70.5913 14.1093 74.2866 14.1093 74.2866C28.201 76.6249 48.6095 76.6249 62.7013 74.2866C62.7013 74.2866 65.9528 70.5913 62.7013 67.0834C62.7013 67.0834 63.7857 63.5761 60.5342 61.2384C59.4498 55.3928 60.7212 56.561 62.8895 53.0537C65.0566 48.377 67.0373 48.377 67.0373 43.7009C48.6095 40.1937 28.2005 40.1937 9.77334 43.7009Z" fill="white" stroke="white" stroke-width="0.675" stroke-linejoin="round"/>
<path d="M76 16.2585C76 19.552 73.5252 22.2209 70.4732 22.2209C67.4193 22.2209 64.9452 19.5513 64.9452 16.2585C64.9452 12.9658 67.42 10.2968 70.4732 10.2968C73.5252 10.2968 76 12.9658 76 16.2585Z" fill="white" stroke="white" stroke-width="0.153697" stroke-linecap="round" stroke-linejoin="round"/>
<path d="M10.5912 16.4579C10.5912 18.7587 8.86333 20.6223 6.73008 20.6223C4.59683 20.6223 2.869 18.7587 2.869 16.4579C2.869 14.1571 4.59683 12.2935 6.73008 12.2935C8.86333 12.2935 10.5912 14.1571 10.5912 16.4579Z" fill="#000000" stroke="#000000" stroke-width="0.67498" stroke-linecap="round" stroke-linejoin="round"/>
<path d="M42.4448 7.088C42.4448 9.38674 40.717 11.2524 38.5837 11.2524C36.4505 11.2524 34.7227 9.38674 34.7227 7.088C34.7227 4.78718 36.4505 2.92361 38.5837 2.92361C40.717 2.92361 42.4448 4.78718 42.4448 7.088Z" fill="#000000" stroke="#000000" stroke-width="0.67498" stroke-linecap="round" stroke-linejoin="round"/>
<path d="M74.2986 16.4579C74.2986 18.7587 72.5708 20.6223 70.4376 20.6223C68.3043 20.6223 66.5765 18.7587 66.5765 16.4579C66.5765 14.1571 68.3043 12.2935 70.4376 12.2935C72.5708 12.2935 74.2986 14.1571 74.2986 16.4579Z" fill="#000000" stroke="#000000" stroke-width="0.67498" stroke-linecap="round" stroke-linejoin="round"/>
<path d="M26.0354 9.1701C26.0354 11.4709 24.3076 13.3345 22.1743 13.3345C20.043 13.3345 18.3133 11.4709 18.3133 9.1701C18.3133 6.86925 20.043 5.00568 22.1743 5.00568C24.3057 5.00568 26.0354 6.86925 26.0354 9.1701Z" fill="#000000" stroke="#000000" stroke-width="0.67498" stroke-linecap="round" stroke-linejoin="round"/>
<path d="M58.8525 10.2113C58.8525 12.5121 57.1246 14.3757 54.9933 14.3757C52.8601 14.3757 51.1323 12.51 51.1323 10.2113C51.1323 7.91255 52.8601 6.04691 54.9933 6.04691C57.1246 6.04691 58.8525 7.91047 58.8525 10.2113Z" fill="#000000" stroke="#000000" stroke-width="0.67498" stroke-linecap="round" stroke-linejoin="round"/>
<path d="M12.5198 45.6085C28.9293 42.4852 53.061 42.4852 64.6441 45.6085L68.5033 20.6223L54.9915 43.5263V14.3758L44.3736 42.4852L38.582 11.2525L32.7904 42.4852L22.1725 13.3347V43.5263L8.65875 20.6223L12.5198 45.6085Z" fill="#000000" stroke="#000000" stroke-width="0.67498" stroke-linejoin="round"/>
<path d="M12.5197 45.6085C12.5197 49.7729 15.4155 49.7729 17.346 53.9372C19.2765 57.0605 19.2765 56.0193 18.3113 61.2248C15.4155 63.3069 15.4155 66.4302 15.4155 66.4302C12.5197 69.5535 16.3808 71.6357 16.3808 71.6357C28.9292 73.7179 48.2345 73.7179 60.783 71.6357C60.783 71.6357 63.6788 69.5535 60.783 66.4302C60.783 66.4302 61.7482 63.3069 58.8524 61.2248C57.8872 56.0193 57.8872 57.0605 59.8177 53.9372C61.7482 49.7729 64.644 49.7729 64.644 45.6085C48.2364 42.4852 28.9311 42.4852 12.5197 45.6085V45.6085Z" fill="#000000" stroke="#000000" stroke-width="0.67498" stroke-linejoin="round"/>
<path d="M17.3461 53.9372C24.103 51.855 53.061 51.855 59.8178 53.9372" stroke="white" stroke-width="0.67498" stroke-linecap="round" stroke-linejoin="round"/>
<path d="M18.3113 61.2247C29.8945 59.1425 47.2693 59.1425 58.8525 61.2247" stroke="white" stroke-width="0.67498" stroke-linecap="round" stroke-linejoin="round"/>
<path d="M15.4175 66.4301C25.0701 64.3479 51.1323 64.3479 60.7849 66.4301" stroke="white" stroke-width="0.67498" stroke-linecap="round" stroke-linejoin="round"/>
</svg>
