<svg width="80" height="80" viewBox="0 -6 80 90" fill="none" xmlns="http://www.w3.org/2000/svg">
<path d="M2.39496 77.3244H77.395V69.8244H2.39496V77.3244Z" fill="white" stroke="#000000" stroke-width="3.3749" stroke-linejoin="round"/>
<path d="M10.7284 69.8244V59.8244H69.0617V69.8244H10.7284Z" fill="white" stroke="#000000" stroke-width="3.3749" stroke-linejoin="round"/>
<path d="M7.95053 14.8244V2.32437H19.0616V7.32436H32.9505V2.32437H46.8394V7.32436H60.7283V2.32437H71.8394V14.8244" fill="white"/>
<path d="M7.95053 14.8244V2.32437H19.0616V7.32436H32.9505V2.32437H46.8394V7.32436H60.7283V2.32437H71.8394V14.8244" stroke="#000000" stroke-width="3.3749" stroke-linejoin="round"/>
<path d="M71.8394 14.8244L63.5061 22.3244H16.2839L7.95053 14.8244" fill="white"/>
<path d="M71.8394 14.8244L63.5061 22.3244H16.2839L7.95053 14.8244" stroke="#000000" stroke-width="3.3749" stroke-linecap="round" stroke-linejoin="round"/>
<path d="M63.5061 22.3244V53.5743H16.2838V22.3244" fill="white"/>
<path d="M63.5061 22.3244V53.5743H16.2838V22.3244" stroke="#000000" stroke-width="3.3749"/>
<path d="M63.5061 53.5743L67.6727 59.8243H12.1172L16.2838 53.5743" fill="white"/>
<path d="M63.5061 53.5743L67.6727 59.8243H12.1172L16.2838 53.5743" stroke="#000000" stroke-width="3.3749" stroke-linecap="round" stroke-linejoin="round"/>
<path d="M7.95053 14.8244H71.8394" stroke="#000000" stroke-width="3.3749" stroke-linecap="round"/>
</svg>
